#!OML:ASF X:\für Bonn\!DataBase\2005_08_10_Bjorn_Final\c3d\bjorn.ASF
:FULLY-SPECIFIED
:DEGREES
198
root -21.4512 19.4397 0.122391 -182.851 -83.8461 -172.722
lowerback -12.0614 2.45552 0.193932
upperback 5.7687 3.47234 -2.02158
thorax 13.3078 1.73751 -1.53482
lowerneck -2.8331 -3.78086 3.98133
upperneck 24.9332 -6.7167 0.403543
head 8.06704 -3.11739 -1.09362
rclavicle 3.06128e-014 -1.66979e-014
rhumerus -9.52918 -0.16297 -65.5349
rradius 117.435
rwrist -23.6121
rhand -13.4076 10.7347
rfingers 7.12502
rthumb 12.7002 -18.8591
lclavicle 3.06128e-014 -1.66979e-014
lhumerus -25.4062 13.653 80.7893
lradius 19.4839
lwrist -35.6351
lhand -16.5471 -6.78515
lfingers 7.12502
lthumb 9.67232 22.9728
rfemur -13.3524 -13.9125 17.5463
rtibia 25.5688
rfoot -6.11587 25.2443
rtoes 7.79348
lfemur -10.0841 14.5284 -16.4801
ltibia 23.7192
lfoot -10.6272 -10.1442
ltoes 1.17271
199
root -21.4482 19.4393 0.12124 -182.958 -83.7942 -172.637
lowerback -11.9942 2.44716 0.292151
upperback 5.82526 3.43812 -1.97665
thorax 13.3341 1.72766 -1.55036
lowerneck -2.78704 -3.79606 4.0167
upperneck 24.9581 -6.73694 0.366721
head 8.06436 -3.12837 -1.11232
rclavicle -4.26393e-014 2.3059e-014
rhumerus -9.65728 0.0334013 -65.5812
rradius 117.444
rwrist -23.6064
rhand -13.5454 10.8528
rfingers 7.12502
rthumb 12.5674 -18.7492
lclavicle -4.26393e-014 2.3059e-014
lhumerus -25.3658 13.4756 80.9418
lradius 19.5807
lwrist -35.5531
lhand -16.5174 -6.7375
lfingers 7.12502
lthumb 9.70103 23.0191
rfemur -13.3441 -13.9176 17.5637
rtibia 25.565
rfoot -6.07803 25.2921
rtoes 7.79006
lfemur -10.067 14.443 -16.4638
ltibia 23.7327
lfoot -10.6649 -10.0006
ltoes 1.1535
200
root -21.4456 19.4394 0.120281 -183.211 -83.7342 -172.413
lowerback -11.9208 2.43913 0.405295
upperback 5.88189 3.39993 -1.91577
thorax 13.3562 1.71646 -1.55777
lowerneck -2.7035 -3.81096 4.02731
upperneck 24.9546 -6.74754 0.320272
head 8.04565 -3.1387 -1.12754
rclavicle -2.15681e-014 2.22639e-014
rhumerus -9.79652 0.239604 -65.6076
rradius 117.468
rwrist -23.6207
rhand -13.6399 10.9847
rfingers 7.12502
rthumb 12.4763 -18.6229
lclavicle -2.15681e-014 2.22639e-014
lhumerus -25.3646 13.2313 81.1303
lradius 19.7195
lwrist -35.33
lhand -16.4507 -6.63857
lfingers 7.12502
lthumb 9.76535 23.115
rfemur -13.3199 -13.8659 17.5957
rtibia 25.5581
rfoot -6.0716 25.2939
rtoes 7.71229
lfemur -10.039 14.3559 -16.428
ltibia 23.7493
lfoot -10.7116 -9.84766
ltoes 1.03461
201
root -21.4417 19.4391 0.119074 -183.45 -83.6741 -172.21
lowerback -11.8219 2.43894 0.523026
upperback 5.94492 3.37175 -1.85956
thorax 13.3712 1.71063 -1.57138
lowerneck -2.63581 -3.83299 4.0347
upperneck 24.948 -6.77152 0.29109
head 8.02934 -3.15363 -1.13786
rclavicle 1.78906e-015 -1.66979e-014
rhumerus -9.92295 0.429106 -65.6455
rradius 117.484
rwrist -23.6091
rhand -13.7401 11.0883
rfingers 7.12502
rthumb 12.3797 -18.5251
lclavicle 1.78906e-015 -1.66979e-014
lhumerus -25.3301 13.0718 81.2933
lradius 19.8178
lwrist -35.2728
lhand -16.3733 -6.54297
lfingers 7.12502
lthumb 9.84004 23.2071
rfemur -13.2904 -13.7815 17.6278
rtibia 25.55
rfoot -6.09965 25.2682
rtoes 7.58215
lfemur -10.0107 14.2444 -16.3889
ltibia 23.7645
lfoot -10.7466 -9.68812
ltoes 1.02775
202
root -21.4381 19.4385 0.11791 -183.601 -83.6361 -172.103
lowerback -11.7273 2.4312 0.622909
upperback 6.0178 3.33603 -1.79936
thorax 13.3984 1.69937 -1.57204
lowerneck -2.56034 -3.85834 4.03884
upperneck 24.9374 -6.79997 0.265123
head 8.01047 -3.17083 -1.14654
rclavicle -6.65929e-015 -2.62396e-014
rhumerus -10.0666 0.607336 -65.677
rradius 117.549
rwrist -23.5946
rhand -13.7845 11.1125
rfingers 7.12502
rthumb 12.3368 -18.5036
lclavicle -6.65929e-015 -2.62396e-014
lhumerus -25.2971 12.8487 81.488
lradius 19.9208
lwrist -35.152
lhand -16.2824 -6.43836
lfingers 7.12502
lthumb 9.92772 23.3075
rfemur -13.2469 -13.6628 17.6427
rtibia 25.5417
rfoot -6.14152 25.1855
rtoes 7.44195
lfemur -9.97237 14.1574 -16.3646
ltibia 23.7797
lfoot -10.7821 -9.55812
ltoes 0.9963
203
root -21.4348 19.439 0.117151 -183.73 -83.5986 -172.003
lowerback -11.6444 2.4299 0.732606
upperback 6.08942 3.30786 -1.74271
thorax 13.4327 1.69273 -1.57991
lowerneck -2.51069 -3.88268 4.08468
upperneck 24.9599 -6.82833 0.207747
head 8.0049 -3.18636 -1.17398
rclavicle -2.62396e-014 3.73715e-014
rhumerus -10.2195 0.760751 -65.7341
rradius 117.632
rwrist -23.5572
rhand -13.7789 11.0988
rfingers 7.12502
rthumb 12.3423 -18.5169
lclavicle -2.62396e-014 3.73715e-014
lhumerus -25.2611 12.6549 81.6786
lradius 20.018
lwrist -35.0039
lhand -16.2286 -6.37487
lfingers 7.12502
lthumb 9.97966 23.3685
rfemur -13.2248 -13.5704 17.6604
rtibia 25.5378
rfoot -6.166 25.1267
rtoes 7.36895
lfemur -9.94736 14.1106 -16.3409
ltibia 23.7868
lfoot -10.7991 -9.47739
ltoes 0.964002
